<svg width="32" height="32" viewBox="0 0 32 32" fill="none" xmlns="http://www.w3.org/2000/svg">
<path d="M16 0C7.1625 0 0 7.1625 0 16C0 24.8375 7.1625 32 16 32C24.8375 32 32 24.8375 32 16C32 7.1625 24.8375 0 16 0ZM25.1313 19.7875C25.0875 20.7625 24.9312 21.4312 24.7062 22.0187C24.2312 23.25 23.2562 24.2312 22.0187 24.7062C21.4375 24.9312 20.7688 25.0875 19.7875 25.1313C18.8062 25.175 18.4937 25.1875 16 25.1875C13.5063 25.1875 13.1937 25.175 12.2125 25.1313C11.2375 25.0875 10.5687 24.9312 9.98125 24.7062C9.36875 24.475 8.8125 24.1125 8.35625 23.6437C7.8875 23.1875 7.525 22.6312 7.29375 22.0187C7.06875 21.4375 6.9125 20.7688 6.86875 19.7875C6.825 18.8062 6.8125 18.4937 6.8125 16C6.8125 13.5063 6.825 13.1937 6.86875 12.2125C6.9125 11.2375 7.06875 10.5687 7.29375 9.98125C7.525 9.36875 7.8875 8.8125 8.35625 8.35625C8.8125 7.8875 9.36875 7.525 9.98125 7.29375C10.5687 7.06875 11.2312 6.9125 12.2125 6.86875C13.1937 6.825 13.5063 6.8125 16 6.8125C18.4937 6.8125 18.8062 6.825 19.7875 6.86875C20.7625 6.9125 21.4312 7.06875 22.0187 7.29375C22.6312 7.525 23.1875 7.8875 23.6437 8.35625C24.1125 8.8125 24.475 9.36875 24.7062 9.98125C24.9312 10.5687 25.0875 11.2312 25.1313 12.2125C25.175 13.1937 25.1875 13.5063 25.1875 16C25.1875 18.4937 25.175 18.8062 25.1313 19.7875Z" fill="#B3B3B3"/>
</svg>
