<svg width="32" height="32" viewBox="0 0 32 32" fill="none" xmlns="http://www.w3.org/2000/svg">
<path d="M16 32C24.8375 32 32 24.8375 32 16C32 7.1625 24.8375 0 16 0C7.1625 0 0 7.1625 0 16C0 24.8375 7.1625 32 16 32ZM7.31875 15.6562L22.75 9.70625C23.4688 
9.45 24.0938 9.88125 23.8563 10.9625L21.2313 23.3375C21.0375 24.2125 20.5125 24.4313 19.7875 24.0125L15.7875 21.0625L13.8562 22.9188C13.6438 23.1313 13.4625 
23.3125 13.05 23.3125L13.3313 19.2437L20.75 12.55C21.075 12.2688 20.675 12.1062 20.25 12.3875L11.0875 18.1562L7.1375 16.925C6.28125 16.65 6.2625 16.0688 7.31875
 15.6562Z" fill="#B3B3B3"/>
</svg>
